<?xml version="1.0" encoding="utf-8" standalone="no"?>
<!DOCTYPE svg PUBLIC "-//W3C//DTD SVG 1.1//EN"
  "http://www.w3.org/Graphics/SVG/1.1/DTD/svg11.dtd">
<!-- Created with matplotlib (https://matplotlib.org/) -->
<svg height="360pt" version="1.1" viewBox="0 0 720 360" width="720pt" xmlns="http://www.w3.org/2000/svg" xmlns:xlink="http://www.w3.org/1999/xlink">
 <defs>
  <style type="text/css">
*{stroke-linecap:butt;stroke-linejoin:round;}
  </style>
 </defs>
 <g id="figure_1">
  <g id="patch_1">
   <path d="M 0 360 
L 720 360 
L 720 0 
L 0 0 
z
" style="fill:#ffffff;"/>
  </g>
  <g id="axes_1">
   <g id="patch_2">
    <path d="M 45.94399 326.64351 
L 716.99976 326.64351 
L 716.99976 18.118365 
L 45.94399 18.118365 
z
" style="fill:#ffffff;"/>
   </g>
   <g id="matplotlib.axis_1">
    <g id="xtick_1">
     <g id="line2d_1">
      <defs>
       <path d="M 0 0 
L 0 3.5 
" id="m90de817fc6" style="stroke:#000000;stroke-width:0.8;"/>
      </defs>
      <g>
       <use style="stroke:#000000;stroke-width:0.8;" x="98.993767" xlink:href="#m90de817fc6" y="326.64351"/>
      </g>
     </g>
     <g id="text_1">
      <!-- 1980 -->
      <defs>
       <path d="M 12.40625 8.296875 
L 28.515625 8.296875 
L 28.515625 63.921875 
L 10.984375 60.40625 
L 10.984375 69.390625 
L 28.421875 72.90625 
L 38.28125 72.90625 
L 38.28125 8.296875 
L 54.390625 8.296875 
L 54.390625 0 
L 12.40625 0 
z
" id="DejaVuSans-49"/>
       <path d="M 10.984375 1.515625 
L 10.984375 10.5 
Q 14.703125 8.734375 18.5 7.8125 
Q 22.3125 6.890625 25.984375 6.890625 
Q 35.75 6.890625 40.890625 13.453125 
Q 46.046875 20.015625 46.78125 33.40625 
Q 43.953125 29.203125 39.59375 26.953125 
Q 35.25 24.703125 29.984375 24.703125 
Q 19.046875 24.703125 12.671875 31.3125 
Q 6.296875 37.9375 6.296875 49.421875 
Q 6.296875 60.640625 12.9375 67.421875 
Q 19.578125 74.21875 30.609375 74.21875 
Q 43.265625 74.21875 49.921875 64.515625 
Q 56.59375 54.828125 56.59375 36.375 
Q 56.59375 19.140625 48.40625 8.859375 
Q 40.234375 -1.421875 26.421875 -1.421875 
Q 22.703125 -1.421875 18.890625 -0.6875 
Q 15.09375 0.046875 10.984375 1.515625 
z
M 30.609375 32.421875 
Q 37.25 32.421875 41.125 36.953125 
Q 45.015625 41.5 45.015625 49.421875 
Q 45.015625 57.28125 41.125 61.84375 
Q 37.25 66.40625 30.609375 66.40625 
Q 23.96875 66.40625 20.09375 61.84375 
Q 16.21875 57.28125 16.21875 49.421875 
Q 16.21875 41.5 20.09375 36.953125 
Q 23.96875 32.421875 30.609375 32.421875 
z
" id="DejaVuSans-57"/>
       <path d="M 31.78125 34.625 
Q 24.75 34.625 20.71875 30.859375 
Q 16.703125 27.09375 16.703125 20.515625 
Q 16.703125 13.921875 20.71875 10.15625 
Q 24.75 6.390625 31.78125 6.390625 
Q 38.8125 6.390625 42.859375 10.171875 
Q 46.921875 13.96875 46.921875 20.515625 
Q 46.921875 27.09375 42.890625 30.859375 
Q 38.875 34.625 31.78125 34.625 
z
M 21.921875 38.8125 
Q 15.578125 40.375 12.03125 44.71875 
Q 8.5 49.078125 8.5 55.328125 
Q 8.5 64.0625 14.71875 69.140625 
Q 20.953125 74.21875 31.78125 74.21875 
Q 42.671875 74.21875 48.875 69.140625 
Q 55.078125 64.0625 55.078125 55.328125 
Q 55.078125 49.078125 51.53125 44.71875 
Q 48 40.375 41.703125 38.8125 
Q 48.828125 37.15625 52.796875 32.3125 
Q 56.78125 27.484375 56.78125 20.515625 
Q 56.78125 9.90625 50.3125 4.234375 
Q 43.84375 -1.421875 31.78125 -1.421875 
Q 19.734375 -1.421875 13.25 4.234375 
Q 6.78125 9.90625 6.78125 20.515625 
Q 6.78125 27.484375 10.78125 32.3125 
Q 14.796875 37.15625 21.921875 38.8125 
z
M 18.3125 54.390625 
Q 18.3125 48.734375 21.84375 45.5625 
Q 25.390625 42.390625 31.78125 42.390625 
Q 38.140625 42.390625 41.71875 45.5625 
Q 45.3125 48.734375 45.3125 54.390625 
Q 45.3125 60.0625 41.71875 63.234375 
Q 38.140625 66.40625 31.78125 66.40625 
Q 25.390625 66.40625 21.84375 63.234375 
Q 18.3125 60.0625 18.3125 54.390625 
z
" id="DejaVuSans-56"/>
       <path d="M 31.78125 66.40625 
Q 24.171875 66.40625 20.328125 58.90625 
Q 16.5 51.421875 16.5 36.375 
Q 16.5 21.390625 20.328125 13.890625 
Q 24.171875 6.390625 31.78125 6.390625 
Q 39.453125 6.390625 43.28125 13.890625 
Q 47.125 21.390625 47.125 36.375 
Q 47.125 51.421875 43.28125 58.90625 
Q 39.453125 66.40625 31.78125 66.40625 
z
M 31.78125 74.21875 
Q 44.046875 74.21875 50.515625 64.515625 
Q 56.984375 54.828125 56.984375 36.375 
Q 56.984375 17.96875 50.515625 8.265625 
Q 44.046875 -1.421875 31.78125 -1.421875 
Q 19.53125 -1.421875 13.0625 8.265625 
Q 6.59375 17.96875 6.59375 36.375 
Q 6.59375 54.828125 13.0625 64.515625 
Q 19.53125 74.21875 31.78125 74.21875 
z
" id="DejaVuSans-48"/>
      </defs>
      <g transform="translate(86.268767 341.241947)scale(0.1 -0.1)">
       <use xlink:href="#DejaVuSans-49"/>
       <use x="63.623047" xlink:href="#DejaVuSans-57"/>
       <use x="127.246094" xlink:href="#DejaVuSans-56"/>
       <use x="190.869141" xlink:href="#DejaVuSans-48"/>
      </g>
     </g>
    </g>
    <g id="xtick_2">
     <g id="line2d_2">
      <g>
       <use style="stroke:#000000;stroke-width:0.8;" x="193.161902" xlink:href="#m90de817fc6" y="326.64351"/>
      </g>
     </g>
     <g id="text_2">
      <!-- 1984 -->
      <defs>
       <path d="M 37.796875 64.3125 
L 12.890625 25.390625 
L 37.796875 25.390625 
z
M 35.203125 72.90625 
L 47.609375 72.90625 
L 47.609375 25.390625 
L 58.015625 25.390625 
L 58.015625 17.1875 
L 47.609375 17.1875 
L 47.609375 0 
L 37.796875 0 
L 37.796875 17.1875 
L 4.890625 17.1875 
L 4.890625 26.703125 
z
" id="DejaVuSans-52"/>
      </defs>
      <g transform="translate(180.436902 341.241947)scale(0.1 -0.1)">
       <use xlink:href="#DejaVuSans-49"/>
       <use x="63.623047" xlink:href="#DejaVuSans-57"/>
       <use x="127.246094" xlink:href="#DejaVuSans-56"/>
       <use x="190.869141" xlink:href="#DejaVuSans-52"/>
      </g>
     </g>
    </g>
    <g id="xtick_3">
     <g id="line2d_3">
      <g>
       <use style="stroke:#000000;stroke-width:0.8;" x="287.330038" xlink:href="#m90de817fc6" y="326.64351"/>
      </g>
     </g>
     <g id="text_3">
      <!-- 1988 -->
      <g transform="translate(274.605038 341.241947)scale(0.1 -0.1)">
       <use xlink:href="#DejaVuSans-49"/>
       <use x="63.623047" xlink:href="#DejaVuSans-57"/>
       <use x="127.246094" xlink:href="#DejaVuSans-56"/>
       <use x="190.869141" xlink:href="#DejaVuSans-56"/>
      </g>
     </g>
    </g>
    <g id="xtick_4">
     <g id="line2d_4">
      <g>
       <use style="stroke:#000000;stroke-width:0.8;" x="381.498173" xlink:href="#m90de817fc6" y="326.64351"/>
      </g>
     </g>
     <g id="text_4">
      <!-- 1992 -->
      <defs>
       <path d="M 19.1875 8.296875 
L 53.609375 8.296875 
L 53.609375 0 
L 7.328125 0 
L 7.328125 8.296875 
Q 12.9375 14.109375 22.625 23.890625 
Q 32.328125 33.6875 34.8125 36.53125 
Q 39.546875 41.84375 41.421875 45.53125 
Q 43.3125 49.21875 43.3125 52.78125 
Q 43.3125 58.59375 39.234375 62.25 
Q 35.15625 65.921875 28.609375 65.921875 
Q 23.96875 65.921875 18.8125 64.3125 
Q 13.671875 62.703125 7.8125 59.421875 
L 7.8125 69.390625 
Q 13.765625 71.78125 18.9375 73 
Q 24.125 74.21875 28.421875 74.21875 
Q 39.75 74.21875 46.484375 68.546875 
Q 53.21875 62.890625 53.21875 53.421875 
Q 53.21875 48.921875 51.53125 44.890625 
Q 49.859375 40.875 45.40625 35.40625 
Q 44.1875 33.984375 37.640625 27.21875 
Q 31.109375 20.453125 19.1875 8.296875 
z
" id="DejaVuSans-50"/>
      </defs>
      <g transform="translate(368.773173 341.241947)scale(0.1 -0.1)">
       <use xlink:href="#DejaVuSans-49"/>
       <use x="63.623047" xlink:href="#DejaVuSans-57"/>
       <use x="127.246094" xlink:href="#DejaVuSans-57"/>
       <use x="190.869141" xlink:href="#DejaVuSans-50"/>
      </g>
     </g>
    </g>
    <g id="xtick_5">
     <g id="line2d_5">
      <g>
       <use style="stroke:#000000;stroke-width:0.8;" x="475.666308" xlink:href="#m90de817fc6" y="326.64351"/>
      </g>
     </g>
     <g id="text_5">
      <!-- 1996 -->
      <defs>
       <path d="M 33.015625 40.375 
Q 26.375 40.375 22.484375 35.828125 
Q 18.609375 31.296875 18.609375 23.390625 
Q 18.609375 15.53125 22.484375 10.953125 
Q 26.375 6.390625 33.015625 6.390625 
Q 39.65625 6.390625 43.53125 10.953125 
Q 47.40625 15.53125 47.40625 23.390625 
Q 47.40625 31.296875 43.53125 35.828125 
Q 39.65625 40.375 33.015625 40.375 
z
M 52.59375 71.296875 
L 52.59375 62.3125 
Q 48.875 64.0625 45.09375 64.984375 
Q 41.3125 65.921875 37.59375 65.921875 
Q 27.828125 65.921875 22.671875 59.328125 
Q 17.53125 52.734375 16.796875 39.40625 
Q 19.671875 43.65625 24.015625 45.921875 
Q 28.375 48.1875 33.59375 48.1875 
Q 44.578125 48.1875 50.953125 41.515625 
Q 57.328125 34.859375 57.328125 23.390625 
Q 57.328125 12.15625 50.6875 5.359375 
Q 44.046875 -1.421875 33.015625 -1.421875 
Q 20.359375 -1.421875 13.671875 8.265625 
Q 6.984375 17.96875 6.984375 36.375 
Q 6.984375 53.65625 15.1875 63.9375 
Q 23.390625 74.21875 37.203125 74.21875 
Q 40.921875 74.21875 44.703125 73.484375 
Q 48.484375 72.75 52.59375 71.296875 
z
" id="DejaVuSans-54"/>
      </defs>
      <g transform="translate(462.941308 341.241947)scale(0.1 -0.1)">
       <use xlink:href="#DejaVuSans-49"/>
       <use x="63.623047" xlink:href="#DejaVuSans-57"/>
       <use x="127.246094" xlink:href="#DejaVuSans-57"/>
       <use x="190.869141" xlink:href="#DejaVuSans-54"/>
      </g>
     </g>
    </g>
    <g id="xtick_6">
     <g id="line2d_6">
      <g>
       <use style="stroke:#000000;stroke-width:0.8;" x="569.834443" xlink:href="#m90de817fc6" y="326.64351"/>
      </g>
     </g>
     <g id="text_6">
      <!-- 2000 -->
      <g transform="translate(557.109443 341.241947)scale(0.1 -0.1)">
       <use xlink:href="#DejaVuSans-50"/>
       <use x="63.623047" xlink:href="#DejaVuSans-48"/>
       <use x="127.246094" xlink:href="#DejaVuSans-48"/>
       <use x="190.869141" xlink:href="#DejaVuSans-48"/>
      </g>
     </g>
    </g>
    <g id="xtick_7">
     <g id="line2d_7">
      <g>
       <use style="stroke:#000000;stroke-width:0.8;" x="664.002578" xlink:href="#m90de817fc6" y="326.64351"/>
      </g>
     </g>
     <g id="text_7">
      <!-- 2004 -->
      <g transform="translate(651.277578 341.241947)scale(0.1 -0.1)">
       <use xlink:href="#DejaVuSans-50"/>
       <use x="63.623047" xlink:href="#DejaVuSans-48"/>
       <use x="127.246094" xlink:href="#DejaVuSans-48"/>
       <use x="190.869141" xlink:href="#DejaVuSans-52"/>
      </g>
     </g>
    </g>
    <g id="text_8">
     <!-- Time -->
     <defs>
      <path d="M -0.296875 72.90625 
L 61.375 72.90625 
L 61.375 64.59375 
L 35.5 64.59375 
L 35.5 0 
L 25.59375 0 
L 25.59375 64.59375 
L -0.296875 64.59375 
z
" id="DejaVuSans-84"/>
      <path d="M 9.421875 54.6875 
L 18.40625 54.6875 
L 18.40625 0 
L 9.421875 0 
z
M 9.421875 75.984375 
L 18.40625 75.984375 
L 18.40625 64.59375 
L 9.421875 64.59375 
z
" id="DejaVuSans-105"/>
      <path d="M 52 44.1875 
Q 55.375 50.25 60.0625 53.125 
Q 64.75 56 71.09375 56 
Q 79.640625 56 84.28125 50.015625 
Q 88.921875 44.046875 88.921875 33.015625 
L 88.921875 0 
L 79.890625 0 
L 79.890625 32.71875 
Q 79.890625 40.578125 77.09375 44.375 
Q 74.3125 48.1875 68.609375 48.1875 
Q 61.625 48.1875 57.5625 43.546875 
Q 53.515625 38.921875 53.515625 30.90625 
L 53.515625 0 
L 44.484375 0 
L 44.484375 32.71875 
Q 44.484375 40.625 41.703125 44.40625 
Q 38.921875 48.1875 33.109375 48.1875 
Q 26.21875 48.1875 22.15625 43.53125 
Q 18.109375 38.875 18.109375 30.90625 
L 18.109375 0 
L 9.078125 0 
L 9.078125 54.6875 
L 18.109375 54.6875 
L 18.109375 46.1875 
Q 21.1875 51.21875 25.484375 53.609375 
Q 29.78125 56 35.6875 56 
Q 41.65625 56 45.828125 52.96875 
Q 50 49.953125 52 44.1875 
z
" id="DejaVuSans-109"/>
      <path d="M 56.203125 29.59375 
L 56.203125 25.203125 
L 14.890625 25.203125 
Q 15.484375 15.921875 20.484375 11.0625 
Q 25.484375 6.203125 34.421875 6.203125 
Q 39.59375 6.203125 44.453125 7.46875 
Q 49.3125 8.734375 54.109375 11.28125 
L 54.109375 2.78125 
Q 49.265625 0.734375 44.1875 -0.34375 
Q 39.109375 -1.421875 33.890625 -1.421875 
Q 20.796875 -1.421875 13.15625 6.1875 
Q 5.515625 13.8125 5.515625 26.8125 
Q 5.515625 40.234375 12.765625 48.109375 
Q 20.015625 56 32.328125 56 
Q 43.359375 56 49.78125 48.890625 
Q 56.203125 41.796875 56.203125 29.59375 
z
M 47.21875 32.234375 
Q 47.125 39.59375 43.09375 43.984375 
Q 39.0625 48.390625 32.421875 48.390625 
Q 24.90625 48.390625 20.390625 44.140625 
Q 15.875 39.890625 15.1875 32.171875 
z
" id="DejaVuSans-101"/>
     </defs>
     <g transform="translate(369.238281 354.920073)scale(0.1 -0.1)">
      <use xlink:href="#DejaVuSans-84"/>
      <use x="57.958984" xlink:href="#DejaVuSans-105"/>
      <use x="85.742188" xlink:href="#DejaVuSans-109"/>
      <use x="183.154297" xlink:href="#DejaVuSans-101"/>
     </g>
    </g>
   </g>
   <g id="matplotlib.axis_2">
    <g id="ytick_1">
     <g id="line2d_8">
      <defs>
       <path d="M 0 0 
L -3.5 0 
" id="m3429b0c293" style="stroke:#000000;stroke-width:0.8;"/>
      </defs>
      <g>
       <use style="stroke:#000000;stroke-width:0.8;" x="45.94399" xlink:href="#m3429b0c293" y="312.61964"/>
      </g>
     </g>
     <g id="text_9">
      <!-- 0.00 -->
      <defs>
       <path d="M 10.6875 12.40625 
L 21 12.40625 
L 21 0 
L 10.6875 0 
z
" id="DejaVuSans-46"/>
      </defs>
      <g transform="translate(16.678365 316.418859)scale(0.1 -0.1)">
       <use xlink:href="#DejaVuSans-48"/>
       <use x="63.623047" xlink:href="#DejaVuSans-46"/>
       <use x="95.410156" xlink:href="#DejaVuSans-48"/>
       <use x="159.033203" xlink:href="#DejaVuSans-48"/>
      </g>
     </g>
    </g>
    <g id="ytick_2">
     <g id="line2d_9">
      <g>
       <use style="stroke:#000000;stroke-width:0.8;" x="45.94399" xlink:href="#m3429b0c293" y="277.499737"/>
      </g>
     </g>
     <g id="text_10">
      <!-- 0.02 -->
      <g transform="translate(16.678365 281.298955)scale(0.1 -0.1)">
       <use xlink:href="#DejaVuSans-48"/>
       <use x="63.623047" xlink:href="#DejaVuSans-46"/>
       <use x="95.410156" xlink:href="#DejaVuSans-48"/>
       <use x="159.033203" xlink:href="#DejaVuSans-50"/>
      </g>
     </g>
    </g>
    <g id="ytick_3">
     <g id="line2d_10">
      <g>
       <use style="stroke:#000000;stroke-width:0.8;" x="45.94399" xlink:href="#m3429b0c293" y="242.379833"/>
      </g>
     </g>
     <g id="text_11">
      <!-- 0.04 -->
      <g transform="translate(16.678365 246.179052)scale(0.1 -0.1)">
       <use xlink:href="#DejaVuSans-48"/>
       <use x="63.623047" xlink:href="#DejaVuSans-46"/>
       <use x="95.410156" xlink:href="#DejaVuSans-48"/>
       <use x="159.033203" xlink:href="#DejaVuSans-52"/>
      </g>
     </g>
    </g>
    <g id="ytick_4">
     <g id="line2d_11">
      <g>
       <use style="stroke:#000000;stroke-width:0.8;" x="45.94399" xlink:href="#m3429b0c293" y="207.25993"/>
      </g>
     </g>
     <g id="text_12">
      <!-- 0.06 -->
      <g transform="translate(16.678365 211.059149)scale(0.1 -0.1)">
       <use xlink:href="#DejaVuSans-48"/>
       <use x="63.623047" xlink:href="#DejaVuSans-46"/>
       <use x="95.410156" xlink:href="#DejaVuSans-48"/>
       <use x="159.033203" xlink:href="#DejaVuSans-54"/>
      </g>
     </g>
    </g>
    <g id="ytick_5">
     <g id="line2d_12">
      <g>
       <use style="stroke:#000000;stroke-width:0.8;" x="45.94399" xlink:href="#m3429b0c293" y="172.140027"/>
      </g>
     </g>
     <g id="text_13">
      <!-- 0.08 -->
      <g transform="translate(16.678365 175.939246)scale(0.1 -0.1)">
       <use xlink:href="#DejaVuSans-48"/>
       <use x="63.623047" xlink:href="#DejaVuSans-46"/>
       <use x="95.410156" xlink:href="#DejaVuSans-48"/>
       <use x="159.033203" xlink:href="#DejaVuSans-56"/>
      </g>
     </g>
    </g>
    <g id="ytick_6">
     <g id="line2d_13">
      <g>
       <use style="stroke:#000000;stroke-width:0.8;" x="45.94399" xlink:href="#m3429b0c293" y="137.020124"/>
      </g>
     </g>
     <g id="text_14">
      <!-- 0.10 -->
      <g transform="translate(16.678365 140.819342)scale(0.1 -0.1)">
       <use xlink:href="#DejaVuSans-48"/>
       <use x="63.623047" xlink:href="#DejaVuSans-46"/>
       <use x="95.410156" xlink:href="#DejaVuSans-49"/>
       <use x="159.033203" xlink:href="#DejaVuSans-48"/>
      </g>
     </g>
    </g>
    <g id="ytick_7">
     <g id="line2d_14">
      <g>
       <use style="stroke:#000000;stroke-width:0.8;" x="45.94399" xlink:href="#m3429b0c293" y="101.90022"/>
      </g>
     </g>
     <g id="text_15">
      <!-- 0.12 -->
      <g transform="translate(16.678365 105.699439)scale(0.1 -0.1)">
       <use xlink:href="#DejaVuSans-48"/>
       <use x="63.623047" xlink:href="#DejaVuSans-46"/>
       <use x="95.410156" xlink:href="#DejaVuSans-49"/>
       <use x="159.033203" xlink:href="#DejaVuSans-50"/>
      </g>
     </g>
    </g>
    <g id="ytick_8">
     <g id="line2d_15">
      <g>
       <use style="stroke:#000000;stroke-width:0.8;" x="45.94399" xlink:href="#m3429b0c293" y="66.780317"/>
      </g>
     </g>
     <g id="text_16">
      <!-- 0.14 -->
      <g transform="translate(16.678365 70.579536)scale(0.1 -0.1)">
       <use xlink:href="#DejaVuSans-48"/>
       <use x="63.623047" xlink:href="#DejaVuSans-46"/>
       <use x="95.410156" xlink:href="#DejaVuSans-49"/>
       <use x="159.033203" xlink:href="#DejaVuSans-52"/>
      </g>
     </g>
    </g>
    <g id="ytick_9">
     <g id="line2d_16">
      <g>
       <use style="stroke:#000000;stroke-width:0.8;" x="45.94399" xlink:href="#m3429b0c293" y="31.660414"/>
      </g>
     </g>
     <g id="text_17">
      <!-- 0.16 -->
      <g transform="translate(16.678365 35.459632)scale(0.1 -0.1)">
       <use xlink:href="#DejaVuSans-48"/>
       <use x="63.623047" xlink:href="#DejaVuSans-46"/>
       <use x="95.410156" xlink:href="#DejaVuSans-49"/>
       <use x="159.033203" xlink:href="#DejaVuSans-54"/>
      </g>
     </g>
    </g>
    <g id="text_18">
     <!-- AOD -->
     <defs>
      <path d="M 34.1875 63.1875 
L 20.796875 26.90625 
L 47.609375 26.90625 
z
M 28.609375 72.90625 
L 39.796875 72.90625 
L 67.578125 0 
L 57.328125 0 
L 50.6875 18.703125 
L 17.828125 18.703125 
L 11.1875 0 
L 0.78125 0 
z
" id="DejaVuSans-65"/>
      <path d="M 39.40625 66.21875 
Q 28.65625 66.21875 22.328125 58.203125 
Q 16.015625 50.203125 16.015625 36.375 
Q 16.015625 22.609375 22.328125 14.59375 
Q 28.65625 6.59375 39.40625 6.59375 
Q 50.140625 6.59375 56.421875 14.59375 
Q 62.703125 22.609375 62.703125 36.375 
Q 62.703125 50.203125 56.421875 58.203125 
Q 50.140625 66.21875 39.40625 66.21875 
z
M 39.40625 74.21875 
Q 54.734375 74.21875 63.90625 63.9375 
Q 73.09375 53.65625 73.09375 36.375 
Q 73.09375 19.140625 63.90625 8.859375 
Q 54.734375 -1.421875 39.40625 -1.421875 
Q 24.03125 -1.421875 14.8125 8.828125 
Q 5.609375 19.09375 5.609375 36.375 
Q 5.609375 53.65625 14.8125 63.9375 
Q 24.03125 74.21875 39.40625 74.21875 
z
" id="DejaVuSans-79"/>
      <path d="M 19.671875 64.796875 
L 19.671875 8.109375 
L 31.59375 8.109375 
Q 46.6875 8.109375 53.6875 14.9375 
Q 60.6875 21.78125 60.6875 36.53125 
Q 60.6875 51.171875 53.6875 57.984375 
Q 46.6875 64.796875 31.59375 64.796875 
z
M 9.8125 72.90625 
L 30.078125 72.90625 
Q 51.265625 72.90625 61.171875 64.09375 
Q 71.09375 55.28125 71.09375 36.53125 
Q 71.09375 17.671875 61.125 8.828125 
Q 51.171875 0 30.078125 0 
L 9.8125 0 
z
" id="DejaVuSans-68"/>
     </defs>
     <g transform="translate(10.598677 183.499688)rotate(-90)scale(0.1 -0.1)">
      <use xlink:href="#DejaVuSans-65"/>
      <use x="66.658203" xlink:href="#DejaVuSans-79"/>
      <use x="145.369141" xlink:href="#DejaVuSans-68"/>
     </g>
    </g>
   </g>
   <g id="line2d_17">
    <path clip-path="url(#pd9c5255b5a)" d="M 76.446525 312.513634 
L 78.408587 311.796811 
L 80.368296 309.961898 
L 82.328005 309.836494 
L 84.290067 309.301996 
L 86.249776 311.010049 
L 88.209485 311.718554 
L 92.131256 310.410764 
L 94.090965 310.547797 
L 96.053027 311.449972 
L 98.012736 310.023177 
L 99.975126 311.227385 
L 101.942564 309.346014 
L 103.907642 310.1389 
L 105.87272 310.069496 
L 109.805236 309.642922 
L 111.770314 310.594514 
L 113.737751 308.197078 
L 115.702829 307.839299 
L 117.667908 308.800356 
L 119.635345 309.008236 
L 121.600423 308.533715 
L 123.56282 309.287045 
L 125.524882 307.892563 
L 127.484591 309.43565 
L 129.4443 310.013934 
L 131.406362 309.376025 
L 133.366071 310.62635 
L 135.32578 306.872754 
L 137.287842 307.897672 
L 139.247551 306.639618 
L 141.20726 307.745092 
L 143.169322 307.344721 
L 145.129031 311.617801 
L 147.08874 308.879141 
L 149.050802 308.884757 
L 151.010511 308.557251 
L 152.97022 273.035334 
L 154.932282 272.110647 
L 156.891991 273.099122 
L 158.8517 275.160312 
L 160.813762 275.74303 
L 162.773471 273.982529 
L 164.73318 268.478359 
L 166.695242 254.085654 
L 168.654951 241.510206 
L 170.61466 239.934232 
L 172.576722 251.809117 
L 176.49614 259.360206 
L 178.458202 259.785846 
L 180.417911 264.948645 
L 182.37762 268.78791 
L 184.339682 273.303468 
L 186.299391 276.468062 
L 188.2591 280.024348 
L 190.221162 282.970629 
L 192.180871 283.254947 
L 194.143262 285.117821 
L 196.110699 288.475606 
L 198.075777 290.852708 
L 200.040855 292.084281 
L 202.008293 291.784674 
L 203.973371 292.520952 
L 205.938449 293.065618 
L 209.870964 295.032589 
L 211.836043 295.230189 
L 213.80348 292.999225 
L 215.768558 299.693192 
L 217.730955 295.972754 
L 219.693017 297.629578 
L 221.652726 297.421268 
L 223.612435 300.133643 
L 225.574497 300.398707 
L 227.534206 304.641 
L 229.493915 302.342683 
L 231.455977 302.769928 
L 233.415686 302.530615 
L 235.375395 303.895626 
L 237.337457 303.987416 
L 239.297166 306.569455 
L 241.256875 303.486456 
L 243.218937 304.095327 
L 245.178646 301.188049 
L 247.138355 303.256058 
L 249.100417 303.884511 
L 251.060126 307.574062 
L 253.019835 303.562237 
L 254.981897 303.554296 
L 256.941606 303.39763 
L 258.901315 304.726383 
L 260.863377 304.413 
L 262.823086 307.727235 
L 264.782795 304.381412 
L 266.744857 305.222399 
L 268.704566 303.716826 
L 270.664275 305.08829 
L 272.626337 305.0561 
L 274.586046 306.924595 
L 276.545755 305.940759 
L 278.507817 305.843298 
L 280.467526 305.328405 
L 282.427236 306.296245 
L 284.389297 306.341549 
L 286.349006 308.770667 
L 288.311397 306.717998 
L 290.278834 307.037002 
L 292.243912 306.495834 
L 294.208991 307.348256 
L 296.176428 307.38039 
L 298.141506 309.241426 
L 300.106584 307.949336 
L 302.074021 307.895634 
L 304.0391 307.149434 
L 306.004178 308.026926 
L 307.971615 307.831751 
L 309.936693 309.636147 
L 311.89909 308.41308 
L 313.861152 308.332723 
L 315.820861 308.12992 
L 317.78057 308.679057 
L 319.742632 308.819323 
L 321.702341 310.421371 
L 323.66205 309.142759 
L 327.583821 308.829368 
L 329.54353 309.214627 
L 331.505592 309.366526 
L 333.465301 310.707064 
L 335.42501 309.547691 
L 337.387072 309.271174 
L 339.346781 308.786326 
L 343.268552 308.377468 
L 345.228261 310.256299 
L 347.187971 308.472216 
L 349.150032 308.004573 
L 351.109741 308.263411 
L 353.069451 308.978659 
L 355.031512 309.085822 
L 356.991221 310.824344 
L 358.950931 309.406797 
L 360.912992 309.127779 
L 362.872701 309.018015 
L 366.794472 309.493911 
L 368.754182 310.275745 
L 370.713891 285.690871 
L 372.675952 239.869914 
L 374.635662 209.508303 
L 376.595371 201.799348 
L 378.557432 187.897724 
L 380.517142 257.409115 
L 382.479532 179.779691 
L 384.446969 221.472377 
L 386.412048 177.409547 
L 388.377126 177.925733 
L 390.344563 168.226387 
L 392.309641 206.974327 
L 394.274719 180.604085 
L 396.242157 221.87541 
L 398.207235 196.856286 
L 400.172313 207.869036 
L 402.13975 204.741325 
L 404.104829 260.823886 
L 406.067225 237.747012 
L 408.029287 258.816897 
L 409.988996 245.569675 
L 411.948706 241.198711 
L 413.910767 257.164397 
L 415.870476 270.207361 
L 417.830186 266.640044 
L 419.792247 288.747406 
L 421.751956 275.092397 
L 423.711666 279.290541 
L 425.673727 278.177594 
L 427.633436 288.74204 
L 429.593146 287.094022 
L 431.555207 297.545784 
L 433.514917 286.301666 
L 435.474626 293.583309 
L 437.436687 297.476669 
L 439.396397 300.012373 
L 441.356106 300.881354 
L 443.318167 304.202517 
L 445.277877 300.213502 
L 447.237586 301.274088 
L 449.199647 301.735188 
L 451.159357 304.116537 
L 453.119066 303.427045 
L 455.081128 305.626437 
L 457.040837 303.918385 
L 460.962608 305.517483 
L 462.922317 306.694163 
L 464.882026 306.409893 
L 466.844088 307.802437 
L 468.803797 307.072196 
L 472.725568 306.777803 
L 474.685277 307.972283 
L 476.647667 307.974729 
L 478.615105 308.467111 
L 482.545261 308.336747 
L 484.512698 308.06714 
L 486.477776 309.122512 
L 488.442855 309.595395 
L 490.410292 309.098041 
L 492.37537 309.073804 
L 494.340448 309.251634 
L 496.307886 309.704129 
L 498.272964 309.920983 
L 500.235361 309.968353 
L 502.197422 309.394245 
L 504.157132 309.84328 
L 506.116841 309.637748 
L 508.078902 310.21975 
L 510.038612 310.393537 
L 511.998321 310.295971 
L 513.960382 309.855971 
L 515.920092 310.047401 
L 517.879801 310.013562 
L 519.841863 310.682803 
L 523.761281 310.279875 
L 525.723343 310.252508 
L 527.683052 310.342666 
L 531.604823 310.952613 
L 533.564532 310.625188 
L 535.524241 310.715148 
L 537.486303 310.471276 
L 539.446012 310.045702 
L 541.405721 310.102647 
L 543.367783 311.102665 
L 545.327492 311.031577 
L 547.287201 311.594896 
L 549.249263 310.469182 
L 551.208972 310.624705 
L 553.168681 310.441925 
L 555.130743 310.6972 
L 557.090452 310.624233 
L 559.050161 310.726915 
L 561.012223 310.504288 
L 562.971932 310.609298 
L 564.931641 310.361594 
L 566.893703 311.1597 
L 568.853412 310.747678 
L 570.815802 311.08827 
L 572.78324 310.653266 
L 574.748318 310.717642 
L 576.713396 310.048805 
L 578.680833 310.738621 
L 580.645912 310.765732 
L 582.61099 311.334506 
L 584.578427 312.139671 
L 586.543505 312.61964 
L 588.508583 312.61964 
L 590.476021 311.908768 
L 592.441099 312.124346 
L 594.403496 311.127593 
L 596.365558 310.60811 
L 600.284976 311.166562 
L 602.247038 311.898012 
L 604.206747 311.109116 
L 606.166456 312.036434 
L 608.128518 310.415289 
L 610.088227 310.304872 
L 612.047936 311.950899 
L 614.009998 311.192408 
L 615.969707 311.091199 
L 617.929416 311.462311 
L 619.891478 310.717109 
L 621.851187 310.661777 
L 623.810896 310.133708 
L 625.772958 311.322838 
L 627.732667 311.382955 
L 629.692376 312.158062 
L 631.654438 312.180762 
L 633.614147 311.046693 
L 635.573856 311.283412 
L 637.535918 310.716516 
L 639.495627 311.15632 
L 639.495627 311.15632 
" style="fill:none;stroke:#1f77b4;stroke-linecap:square;stroke-width:1.5;"/>
   </g>
   <g id="line2d_18">
    <path clip-path="url(#pd9c5255b5a)" d="M 211.72482 281.956675 
L 213.722912 289.599833 
L 215.656549 292.243996 
L 217.654641 293.356349 
L 219.652733 291.112857 
L 221.457461 291.999084 
L 223.455553 293.291108 
L 227.387282 297.443513 
L 229.320919 298.117581 
L 231.319011 296.762086 
L 235.25074 298.160133 
L 237.248832 300.446736 
L 239.182469 300.424738 
L 243.178653 296.873464 
L 244.983381 296.492015 
L 246.981473 295.619939 
L 250.913202 298.350877 
L 252.846839 298.877759 
L 254.844931 297.684234 
L 256.843023 297.330824 
L 258.77666 298.254686 
L 260.774752 300.404778 
L 264.706481 301.367864 
L 266.704573 300.79449 
L 268.509301 299.932003 
L 270.507393 299.69188 
L 272.44103 299.267544 
L 274.439122 300.830648 
L 276.372759 301.700768 
L 278.370851 300.976937 
L 280.368943 299.418451 
L 282.30258 300.633294 
L 284.300672 302.562218 
L 286.234309 303.683085 
L 288.232401 303.557472 
L 290.230493 302.120464 
L 292.099676 301.700251 
L 294.097768 301.574641 
L 296.031405 302.431466 
L 298.029497 303.729803 
L 299.963134 304.071831 
L 301.961226 302.108186 
L 303.959318 300.911038 
L 307.891047 304.578492 
L 309.824684 305.365196 
L 311.822776 305.404141 
L 313.820868 304.355382 
L 317.623688 302.881954 
L 319.557325 303.404933 
L 321.555417 304.629528 
L 323.489054 304.934095 
L 325.487146 303.436184 
L 327.485238 303.059184 
L 331.416967 305.780987 
L 333.350604 306.140685 
L 335.348696 306.39269 
L 337.346788 304.760421 
L 339.151516 303.609184 
L 341.149608 303.333166 
L 343.083245 303.737758 
L 345.081337 304.345921 
L 347.014974 304.453111 
L 349.013066 303.055333 
L 351.011158 302.700683 
L 352.944795 304.081515 
L 354.942887 305.339803 
L 356.876525 305.417108 
L 358.874616 305.940326 
L 360.872708 304.685311 
L 364.675528 303.196468 
L 366.609165 303.769402 
L 368.607257 292.571201 
L 370.540895 259.726744 
L 372.538986 178.359647 
L 374.537078 189.257606 
L 376.470716 181.553505 
L 378.468807 168.009391 
L 380.402445 167.646171 
L 382.400537 171.728686 
L 384.398628 167.280856 
L 386.267811 36.009736 
L 388.265903 166.283478 
L 390.19954 168.762982 
L 392.197632 101.168205 
L 394.131269 174.181799 
L 396.129361 32.142235 
L 398.127453 164.045764 
L 400.06109 183.524135 
L 402.059182 193.98387 
L 403.992819 226.814202 
L 405.990911 219.288724 
L 407.989003 222.14683 
L 409.793731 219.890621 
L 411.791823 246.318421 
L 413.72546 239.967975 
L 415.723552 242.515767 
L 417.657189 244.641816 
L 419.655281 260.454005 
L 421.653373 268.531656 
L 423.58701 272.554273 
L 425.585102 263.343586 
L 427.51874 262.92271 
L 429.516831 264.557414 
L 431.514923 267.627375 
L 433.319651 267.360639 
L 435.317743 269.254502 
L 437.251381 285.866395 
L 439.249472 292.355066 
L 441.18311 293.028434 
L 443.181201 292.44174 
L 445.179293 293.036187 
L 447.112931 295.013815 
L 451.04466 298.45632 
L 455.040843 298.314673 
L 456.845572 299.069778 
L 458.843663 298.971284 
L 460.777301 299.13984 
L 462.775393 300.283393 
L 464.70903 300.706166 
L 468.705213 300.747588 
L 470.638851 301.607615 
L 472.636943 302.232732 
L 474.57058 303.641581 
L 476.568672 304.036742 
L 478.566764 303.514789 
L 480.435946 303.319147 
L 482.434038 302.047542 
L 484.367675 301.744857 
L 486.365767 303.289221 
L 488.299405 304.53411 
L 490.297496 303.104034 
L 492.295588 302.829773 
L 496.227317 305.291588 
L 498.160955 305.973839 
L 500.159046 305.423152 
L 502.157138 305.537929 
L 503.961866 304.412978 
L 505.959958 304.070468 
L 507.893596 305.07228 
L 509.891687 305.664282 
L 511.825325 305.517107 
L 513.823417 304.547261 
L 515.821508 302.157568 
L 517.755146 303.803959 
L 519.753237 305.655745 
L 521.686875 306.563905 
L 523.684967 306.443586 
L 525.683058 306.161496 
L 527.487787 303.508963 
L 529.485878 303.599489 
L 531.419516 304.153779 
L 533.417608 305.901925 
L 535.351245 306.489734 
L 537.349337 305.774257 
L 539.347429 301.879138 
L 541.281066 303.822556 
L 543.279158 305.481176 
L 545.212795 307.863543 
L 547.210887 306.622455 
L 549.208979 306.618407 
L 551.013707 304.298108 
L 553.011799 303.830737 
L 554.945436 304.602461 
L 556.943528 305.929785 
L 558.877165 305.522012 
L 560.875257 305.731361 
L 562.873349 301.703968 
L 564.806986 304.584083 
L 566.805078 306.350402 
L 568.738715 306.897244 
L 570.736807 306.230953 
L 572.734899 306.256927 
L 574.604081 304.638974 
L 576.602173 303.996881 
L 578.535811 304.391646 
L 580.533902 305.727411 
L 582.46754 305.795203 
L 584.465632 311.26121 
L 586.463723 312.61964 
L 588.397361 309.723301 
L 590.395453 306.455026 
L 592.32909 302.062642 
L 594.327182 302.675404 
L 596.325274 305.629043 
L 598.130002 305.906145 
L 600.128093 304.43416 
L 602.061731 303.858846 
L 604.059823 304.539408 
L 605.99346 305.629367 
L 607.991552 306.34411 
L 609.989644 303.997373 
L 611.923281 305.071669 
L 613.921373 306.403208 
L 615.85501 307.035535 
L 617.853102 306.627629 
L 619.851194 306.906589 
L 621.655922 306.072558 
L 623.654014 305.455803 
L 625.587651 305.922145 
L 627.585743 306.054773 
L 629.51938 307.251 
L 631.517472 307.681024 
L 633.515564 305.415839 
L 635.449201 305.517071 
L 637.447293 306.117177 
L 639.38093 306.341685 
L 641.379022 306.341228 
L 643.377114 305.91308 
L 645.181842 304.75563 
L 647.179934 305.505104 
L 649.113571 306.068477 
L 651.111663 306.217251 
L 653.0453 306.784184 
L 655.043392 306.016846 
L 658.975121 305.816527 
L 660.973213 306.073169 
L 662.90685 306.199805 
L 664.904942 306.787144 
L 666.903034 306.69935 
L 668.772217 306.480048 
L 670.770309 306.473784 
L 672.703946 306.59922 
L 676.635675 307.161148 
L 678.633767 307.096859 
L 680.631859 305.830397 
L 682.565496 306.511323 
L 684.563588 305.710418 
L 686.497225 307.587394 
L 686.497225 307.587394 
" style="fill:none;stroke:#ff7f0e;stroke-linecap:square;stroke-width:1.5;"/>
   </g>
   <g id="patch_3">
    <path d="M 45.94399 326.64351 
L 45.94399 18.118365 
" style="fill:none;stroke:#000000;stroke-linecap:square;stroke-linejoin:miter;stroke-width:0.8;"/>
   </g>
   <g id="patch_4">
    <path d="M 716.99976 326.64351 
L 716.99976 18.118365 
" style="fill:none;stroke:#000000;stroke-linecap:square;stroke-linejoin:miter;stroke-width:0.8;"/>
   </g>
   <g id="patch_5">
    <path d="M 45.94399 326.64351 
L 716.99976 326.64351 
" style="fill:none;stroke:#000000;stroke-linecap:square;stroke-linejoin:miter;stroke-width:0.8;"/>
   </g>
   <g id="patch_6">
    <path d="M 45.94399 18.118365 
L 716.99976 18.118365 
" style="fill:none;stroke:#000000;stroke-linecap:square;stroke-linejoin:miter;stroke-width:0.8;"/>
   </g>
   <g id="text_19">
    <!-- ASAP AOD at 1.02 um -->
    <defs>
     <path d="M 53.515625 70.515625 
L 53.515625 60.890625 
Q 47.90625 63.578125 42.921875 64.890625 
Q 37.9375 66.21875 33.296875 66.21875 
Q 25.25 66.21875 20.875 63.09375 
Q 16.5 59.96875 16.5 54.203125 
Q 16.5 49.359375 19.40625 46.890625 
Q 22.3125 44.4375 30.421875 42.921875 
L 36.375 41.703125 
Q 47.40625 39.59375 52.65625 34.296875 
Q 57.90625 29 57.90625 20.125 
Q 57.90625 9.515625 50.796875 4.046875 
Q 43.703125 -1.421875 29.984375 -1.421875 
Q 24.8125 -1.421875 18.96875 -0.25 
Q 13.140625 0.921875 6.890625 3.21875 
L 6.890625 13.375 
Q 12.890625 10.015625 18.65625 8.296875 
Q 24.421875 6.59375 29.984375 6.59375 
Q 38.421875 6.59375 43.015625 9.90625 
Q 47.609375 13.234375 47.609375 19.390625 
Q 47.609375 24.75 44.3125 27.78125 
Q 41.015625 30.8125 33.5 32.328125 
L 27.484375 33.5 
Q 16.453125 35.6875 11.515625 40.375 
Q 6.59375 45.0625 6.59375 53.421875 
Q 6.59375 63.09375 13.40625 68.65625 
Q 20.21875 74.21875 32.171875 74.21875 
Q 37.3125 74.21875 42.625 73.28125 
Q 47.953125 72.359375 53.515625 70.515625 
z
" id="DejaVuSans-83"/>
     <path d="M 19.671875 64.796875 
L 19.671875 37.40625 
L 32.078125 37.40625 
Q 38.96875 37.40625 42.71875 40.96875 
Q 46.484375 44.53125 46.484375 51.125 
Q 46.484375 57.671875 42.71875 61.234375 
Q 38.96875 64.796875 32.078125 64.796875 
z
M 9.8125 72.90625 
L 32.078125 72.90625 
Q 44.34375 72.90625 50.609375 67.359375 
Q 56.890625 61.8125 56.890625 51.125 
Q 56.890625 40.328125 50.609375 34.8125 
Q 44.34375 29.296875 32.078125 29.296875 
L 19.671875 29.296875 
L 19.671875 0 
L 9.8125 0 
z
" id="DejaVuSans-80"/>
     <path id="DejaVuSans-32"/>
     <path d="M 34.28125 27.484375 
Q 23.390625 27.484375 19.1875 25 
Q 14.984375 22.515625 14.984375 16.5 
Q 14.984375 11.71875 18.140625 8.90625 
Q 21.296875 6.109375 26.703125 6.109375 
Q 34.1875 6.109375 38.703125 11.40625 
Q 43.21875 16.703125 43.21875 25.484375 
L 43.21875 27.484375 
z
M 52.203125 31.203125 
L 52.203125 0 
L 43.21875 0 
L 43.21875 8.296875 
Q 40.140625 3.328125 35.546875 0.953125 
Q 30.953125 -1.421875 24.3125 -1.421875 
Q 15.921875 -1.421875 10.953125 3.296875 
Q 6 8.015625 6 15.921875 
Q 6 25.140625 12.171875 29.828125 
Q 18.359375 34.515625 30.609375 34.515625 
L 43.21875 34.515625 
L 43.21875 35.40625 
Q 43.21875 41.609375 39.140625 45 
Q 35.0625 48.390625 27.6875 48.390625 
Q 23 48.390625 18.546875 47.265625 
Q 14.109375 46.140625 10.015625 43.890625 
L 10.015625 52.203125 
Q 14.9375 54.109375 19.578125 55.046875 
Q 24.21875 56 28.609375 56 
Q 40.484375 56 46.34375 49.84375 
Q 52.203125 43.703125 52.203125 31.203125 
z
" id="DejaVuSans-97"/>
     <path d="M 18.3125 70.21875 
L 18.3125 54.6875 
L 36.8125 54.6875 
L 36.8125 47.703125 
L 18.3125 47.703125 
L 18.3125 18.015625 
Q 18.3125 11.328125 20.140625 9.421875 
Q 21.96875 7.515625 27.59375 7.515625 
L 36.8125 7.515625 
L 36.8125 0 
L 27.59375 0 
Q 17.1875 0 13.234375 3.875 
Q 9.28125 7.765625 9.28125 18.015625 
L 9.28125 47.703125 
L 2.6875 47.703125 
L 2.6875 54.6875 
L 9.28125 54.6875 
L 9.28125 70.21875 
z
" id="DejaVuSans-116"/>
     <path d="M 8.5 21.578125 
L 8.5 54.6875 
L 17.484375 54.6875 
L 17.484375 21.921875 
Q 17.484375 14.15625 20.5 10.265625 
Q 23.53125 6.390625 29.59375 6.390625 
Q 36.859375 6.390625 41.078125 11.03125 
Q 45.3125 15.671875 45.3125 23.6875 
L 45.3125 54.6875 
L 54.296875 54.6875 
L 54.296875 0 
L 45.3125 0 
L 45.3125 8.40625 
Q 42.046875 3.421875 37.71875 1 
Q 33.40625 -1.421875 27.6875 -1.421875 
Q 18.265625 -1.421875 13.375 4.4375 
Q 8.5 10.296875 8.5 21.578125 
z
M 31.109375 56 
z
" id="DejaVuSans-117"/>
    </defs>
    <g transform="translate(315.718437 12.118365)scale(0.12 -0.12)">
     <use xlink:href="#DejaVuSans-65"/>
     <use x="68.408203" xlink:href="#DejaVuSans-83"/>
     <use x="133.759766" xlink:href="#DejaVuSans-65"/>
     <use x="202.167969" xlink:href="#DejaVuSans-80"/>
     <use x="262.470703" xlink:href="#DejaVuSans-32"/>
     <use x="294.257812" xlink:href="#DejaVuSans-65"/>
     <use x="360.916016" xlink:href="#DejaVuSans-79"/>
     <use x="439.626953" xlink:href="#DejaVuSans-68"/>
     <use x="516.628906" xlink:href="#DejaVuSans-32"/>
     <use x="548.416016" xlink:href="#DejaVuSans-97"/>
     <use x="609.695312" xlink:href="#DejaVuSans-116"/>
     <use x="648.904297" xlink:href="#DejaVuSans-32"/>
     <use x="680.691406" xlink:href="#DejaVuSans-49"/>
     <use x="744.314453" xlink:href="#DejaVuSans-46"/>
     <use x="776.101562" xlink:href="#DejaVuSans-48"/>
     <use x="839.724609" xlink:href="#DejaVuSans-50"/>
     <use x="903.347656" xlink:href="#DejaVuSans-32"/>
     <use x="935.134766" xlink:href="#DejaVuSans-117"/>
     <use x="998.513672" xlink:href="#DejaVuSans-109"/>
    </g>
   </g>
   <g id="legend_1">
    <g id="patch_7">
     <path d="M 491.821635 55.474615 
L 709.99976 55.474615 
Q 711.99976 55.474615 711.99976 53.474615 
L 711.99976 25.118365 
Q 711.99976 23.118365 709.99976 23.118365 
L 491.821635 23.118365 
Q 489.821635 23.118365 489.821635 25.118365 
L 489.821635 53.474615 
Q 489.821635 55.474615 491.821635 55.474615 
z
" style="fill:#ffffff;opacity:0.8;stroke:#cccccc;stroke-linejoin:miter;"/>
    </g>
    <g id="line2d_19">
     <path d="M 493.821635 31.216803 
L 513.821635 31.216803 
" style="fill:none;stroke:#1f77b4;stroke-linecap:square;stroke-width:1.5;"/>
    </g>
    <g id="line2d_20"/>
    <g id="text_20">
     <!-- Stratospheric Optical Depth (Filled) -->
     <defs>
      <path d="M 41.109375 46.296875 
Q 39.59375 47.171875 37.8125 47.578125 
Q 36.03125 48 33.890625 48 
Q 26.265625 48 22.1875 43.046875 
Q 18.109375 38.09375 18.109375 28.8125 
L 18.109375 0 
L 9.078125 0 
L 9.078125 54.6875 
L 18.109375 54.6875 
L 18.109375 46.1875 
Q 20.953125 51.171875 25.484375 53.578125 
Q 30.03125 56 36.53125 56 
Q 37.453125 56 38.578125 55.875 
Q 39.703125 55.765625 41.0625 55.515625 
z
" id="DejaVuSans-114"/>
      <path d="M 30.609375 48.390625 
Q 23.390625 48.390625 19.1875 42.75 
Q 14.984375 37.109375 14.984375 27.296875 
Q 14.984375 17.484375 19.15625 11.84375 
Q 23.34375 6.203125 30.609375 6.203125 
Q 37.796875 6.203125 41.984375 11.859375 
Q 46.1875 17.53125 46.1875 27.296875 
Q 46.1875 37.015625 41.984375 42.703125 
Q 37.796875 48.390625 30.609375 48.390625 
z
M 30.609375 56 
Q 42.328125 56 49.015625 48.375 
Q 55.71875 40.765625 55.71875 27.296875 
Q 55.71875 13.875 49.015625 6.21875 
Q 42.328125 -1.421875 30.609375 -1.421875 
Q 18.84375 -1.421875 12.171875 6.21875 
Q 5.515625 13.875 5.515625 27.296875 
Q 5.515625 40.765625 12.171875 48.375 
Q 18.84375 56 30.609375 56 
z
" id="DejaVuSans-111"/>
      <path d="M 44.28125 53.078125 
L 44.28125 44.578125 
Q 40.484375 46.53125 36.375 47.5 
Q 32.28125 48.484375 27.875 48.484375 
Q 21.1875 48.484375 17.84375 46.4375 
Q 14.5 44.390625 14.5 40.28125 
Q 14.5 37.15625 16.890625 35.375 
Q 19.28125 33.59375 26.515625 31.984375 
L 29.59375 31.296875 
Q 39.15625 29.25 43.1875 25.515625 
Q 47.21875 21.78125 47.21875 15.09375 
Q 47.21875 7.46875 41.1875 3.015625 
Q 35.15625 -1.421875 24.609375 -1.421875 
Q 20.21875 -1.421875 15.453125 -0.5625 
Q 10.6875 0.296875 5.421875 2 
L 5.421875 11.28125 
Q 10.40625 8.6875 15.234375 7.390625 
Q 20.0625 6.109375 24.8125 6.109375 
Q 31.15625 6.109375 34.5625 8.28125 
Q 37.984375 10.453125 37.984375 14.40625 
Q 37.984375 18.0625 35.515625 20.015625 
Q 33.0625 21.96875 24.703125 23.78125 
L 21.578125 24.515625 
Q 13.234375 26.265625 9.515625 29.90625 
Q 5.8125 33.546875 5.8125 39.890625 
Q 5.8125 47.609375 11.28125 51.796875 
Q 16.75 56 26.8125 56 
Q 31.78125 56 36.171875 55.265625 
Q 40.578125 54.546875 44.28125 53.078125 
z
" id="DejaVuSans-115"/>
      <path d="M 18.109375 8.203125 
L 18.109375 -20.796875 
L 9.078125 -20.796875 
L 9.078125 54.6875 
L 18.109375 54.6875 
L 18.109375 46.390625 
Q 20.953125 51.265625 25.265625 53.625 
Q 29.59375 56 35.59375 56 
Q 45.5625 56 51.78125 48.09375 
Q 58.015625 40.1875 58.015625 27.296875 
Q 58.015625 14.40625 51.78125 6.484375 
Q 45.5625 -1.421875 35.59375 -1.421875 
Q 29.59375 -1.421875 25.265625 0.953125 
Q 20.953125 3.328125 18.109375 8.203125 
z
M 48.6875 27.296875 
Q 48.6875 37.203125 44.609375 42.84375 
Q 40.53125 48.484375 33.40625 48.484375 
Q 26.265625 48.484375 22.1875 42.84375 
Q 18.109375 37.203125 18.109375 27.296875 
Q 18.109375 17.390625 22.1875 11.75 
Q 26.265625 6.109375 33.40625 6.109375 
Q 40.53125 6.109375 44.609375 11.75 
Q 48.6875 17.390625 48.6875 27.296875 
z
" id="DejaVuSans-112"/>
      <path d="M 54.890625 33.015625 
L 54.890625 0 
L 45.90625 0 
L 45.90625 32.71875 
Q 45.90625 40.484375 42.875 44.328125 
Q 39.84375 48.1875 33.796875 48.1875 
Q 26.515625 48.1875 22.3125 43.546875 
Q 18.109375 38.921875 18.109375 30.90625 
L 18.109375 0 
L 9.078125 0 
L 9.078125 75.984375 
L 18.109375 75.984375 
L 18.109375 46.1875 
Q 21.34375 51.125 25.703125 53.5625 
Q 30.078125 56 35.796875 56 
Q 45.21875 56 50.046875 50.171875 
Q 54.890625 44.34375 54.890625 33.015625 
z
" id="DejaVuSans-104"/>
      <path d="M 48.78125 52.59375 
L 48.78125 44.1875 
Q 44.96875 46.296875 41.140625 47.34375 
Q 37.3125 48.390625 33.40625 48.390625 
Q 24.65625 48.390625 19.8125 42.84375 
Q 14.984375 37.3125 14.984375 27.296875 
Q 14.984375 17.28125 19.8125 11.734375 
Q 24.65625 6.203125 33.40625 6.203125 
Q 37.3125 6.203125 41.140625 7.25 
Q 44.96875 8.296875 48.78125 10.40625 
L 48.78125 2.09375 
Q 45.015625 0.34375 40.984375 -0.53125 
Q 36.96875 -1.421875 32.421875 -1.421875 
Q 20.0625 -1.421875 12.78125 6.34375 
Q 5.515625 14.109375 5.515625 27.296875 
Q 5.515625 40.671875 12.859375 48.328125 
Q 20.21875 56 33.015625 56 
Q 37.15625 56 41.109375 55.140625 
Q 45.0625 54.296875 48.78125 52.59375 
z
" id="DejaVuSans-99"/>
      <path d="M 9.421875 75.984375 
L 18.40625 75.984375 
L 18.40625 0 
L 9.421875 0 
z
" id="DejaVuSans-108"/>
      <path d="M 31 75.875 
Q 24.46875 64.65625 21.28125 53.65625 
Q 18.109375 42.671875 18.109375 31.390625 
Q 18.109375 20.125 21.3125 9.0625 
Q 24.515625 -2 31 -13.1875 
L 23.1875 -13.1875 
Q 15.875 -1.703125 12.234375 9.375 
Q 8.59375 20.453125 8.59375 31.390625 
Q 8.59375 42.28125 12.203125 53.3125 
Q 15.828125 64.359375 23.1875 75.875 
z
" id="DejaVuSans-40"/>
      <path d="M 9.8125 72.90625 
L 51.703125 72.90625 
L 51.703125 64.59375 
L 19.671875 64.59375 
L 19.671875 43.109375 
L 48.578125 43.109375 
L 48.578125 34.8125 
L 19.671875 34.8125 
L 19.671875 0 
L 9.8125 0 
z
" id="DejaVuSans-70"/>
      <path d="M 45.40625 46.390625 
L 45.40625 75.984375 
L 54.390625 75.984375 
L 54.390625 0 
L 45.40625 0 
L 45.40625 8.203125 
Q 42.578125 3.328125 38.25 0.953125 
Q 33.9375 -1.421875 27.875 -1.421875 
Q 17.96875 -1.421875 11.734375 6.484375 
Q 5.515625 14.40625 5.515625 27.296875 
Q 5.515625 40.1875 11.734375 48.09375 
Q 17.96875 56 27.875 56 
Q 33.9375 56 38.25 53.625 
Q 42.578125 51.265625 45.40625 46.390625 
z
M 14.796875 27.296875 
Q 14.796875 17.390625 18.875 11.75 
Q 22.953125 6.109375 30.078125 6.109375 
Q 37.203125 6.109375 41.296875 11.75 
Q 45.40625 17.390625 45.40625 27.296875 
Q 45.40625 37.203125 41.296875 42.84375 
Q 37.203125 48.484375 30.078125 48.484375 
Q 22.953125 48.484375 18.875 42.84375 
Q 14.796875 37.203125 14.796875 27.296875 
z
" id="DejaVuSans-100"/>
      <path d="M 8.015625 75.875 
L 15.828125 75.875 
Q 23.140625 64.359375 26.78125 53.3125 
Q 30.421875 42.28125 30.421875 31.390625 
Q 30.421875 20.453125 26.78125 9.375 
Q 23.140625 -1.703125 15.828125 -13.1875 
L 8.015625 -13.1875 
Q 14.5 -2 17.703125 9.0625 
Q 20.90625 20.125 20.90625 31.390625 
Q 20.90625 42.671875 17.703125 53.65625 
Q 14.5 64.65625 8.015625 75.875 
z
" id="DejaVuSans-41"/>
     </defs>
     <g transform="translate(521.821635 34.716803)scale(0.1 -0.1)">
      <use xlink:href="#DejaVuSans-83"/>
      <use x="63.476562" xlink:href="#DejaVuSans-116"/>
      <use x="102.685547" xlink:href="#DejaVuSans-114"/>
      <use x="143.798828" xlink:href="#DejaVuSans-97"/>
      <use x="205.078125" xlink:href="#DejaVuSans-116"/>
      <use x="244.287109" xlink:href="#DejaVuSans-111"/>
      <use x="305.46875" xlink:href="#DejaVuSans-115"/>
      <use x="357.568359" xlink:href="#DejaVuSans-112"/>
      <use x="421.044922" xlink:href="#DejaVuSans-104"/>
      <use x="484.423828" xlink:href="#DejaVuSans-101"/>
      <use x="545.947266" xlink:href="#DejaVuSans-114"/>
      <use x="587.060547" xlink:href="#DejaVuSans-105"/>
      <use x="614.84375" xlink:href="#DejaVuSans-99"/>
      <use x="669.824219" xlink:href="#DejaVuSans-32"/>
      <use x="701.611328" xlink:href="#DejaVuSans-79"/>
      <use x="780.322266" xlink:href="#DejaVuSans-112"/>
      <use x="843.798828" xlink:href="#DejaVuSans-116"/>
      <use x="883.007812" xlink:href="#DejaVuSans-105"/>
      <use x="910.791016" xlink:href="#DejaVuSans-99"/>
      <use x="965.771484" xlink:href="#DejaVuSans-97"/>
      <use x="1027.050781" xlink:href="#DejaVuSans-108"/>
      <use x="1054.833984" xlink:href="#DejaVuSans-32"/>
      <use x="1086.621094" xlink:href="#DejaVuSans-68"/>
      <use x="1163.623047" xlink:href="#DejaVuSans-101"/>
      <use x="1225.146484" xlink:href="#DejaVuSans-112"/>
      <use x="1288.623047" xlink:href="#DejaVuSans-116"/>
      <use x="1327.832031" xlink:href="#DejaVuSans-104"/>
      <use x="1391.210938" xlink:href="#DejaVuSans-32"/>
      <use x="1422.998047" xlink:href="#DejaVuSans-40"/>
      <use x="1462.011719" xlink:href="#DejaVuSans-70"/>
      <use x="1512.28125" xlink:href="#DejaVuSans-105"/>
      <use x="1540.064453" xlink:href="#DejaVuSans-108"/>
      <use x="1567.847656" xlink:href="#DejaVuSans-108"/>
      <use x="1595.630859" xlink:href="#DejaVuSans-101"/>
      <use x="1657.154297" xlink:href="#DejaVuSans-100"/>
      <use x="1720.630859" xlink:href="#DejaVuSans-41"/>
     </g>
    </g>
    <g id="line2d_21">
     <path d="M 493.821635 45.894928 
L 513.821635 45.894928 
" style="fill:none;stroke:#ff7f0e;stroke-linecap:square;stroke-width:1.5;"/>
    </g>
    <g id="line2d_22"/>
    <g id="text_21">
     <!-- Altitude/Latitude, Interpolation, Filled -->
     <defs>
      <path d="M 25.390625 72.90625 
L 33.6875 72.90625 
L 8.296875 -9.28125 
L 0 -9.28125 
z
" id="DejaVuSans-47"/>
      <path d="M 9.8125 72.90625 
L 19.671875 72.90625 
L 19.671875 8.296875 
L 55.171875 8.296875 
L 55.171875 0 
L 9.8125 0 
z
" id="DejaVuSans-76"/>
      <path d="M 11.71875 12.40625 
L 22.015625 12.40625 
L 22.015625 4 
L 14.015625 -11.625 
L 7.71875 -11.625 
L 11.71875 4 
z
" id="DejaVuSans-44"/>
      <path d="M 9.8125 72.90625 
L 19.671875 72.90625 
L 19.671875 0 
L 9.8125 0 
z
" id="DejaVuSans-73"/>
      <path d="M 54.890625 33.015625 
L 54.890625 0 
L 45.90625 0 
L 45.90625 32.71875 
Q 45.90625 40.484375 42.875 44.328125 
Q 39.84375 48.1875 33.796875 48.1875 
Q 26.515625 48.1875 22.3125 43.546875 
Q 18.109375 38.921875 18.109375 30.90625 
L 18.109375 0 
L 9.078125 0 
L 9.078125 54.6875 
L 18.109375 54.6875 
L 18.109375 46.1875 
Q 21.34375 51.125 25.703125 53.5625 
Q 30.078125 56 35.796875 56 
Q 45.21875 56 50.046875 50.171875 
Q 54.890625 44.34375 54.890625 33.015625 
z
" id="DejaVuSans-110"/>
     </defs>
     <g transform="translate(521.821635 49.394928)scale(0.1 -0.1)">
      <use xlink:href="#DejaVuSans-65"/>
      <use x="68.408203" xlink:href="#DejaVuSans-108"/>
      <use x="96.191406" xlink:href="#DejaVuSans-116"/>
      <use x="135.400391" xlink:href="#DejaVuSans-105"/>
      <use x="163.183594" xlink:href="#DejaVuSans-116"/>
      <use x="202.392578" xlink:href="#DejaVuSans-117"/>
      <use x="265.771484" xlink:href="#DejaVuSans-100"/>
      <use x="329.248047" xlink:href="#DejaVuSans-101"/>
      <use x="390.771484" xlink:href="#DejaVuSans-47"/>
      <use x="424.462891" xlink:href="#DejaVuSans-76"/>
      <use x="480.175781" xlink:href="#DejaVuSans-97"/>
      <use x="541.455078" xlink:href="#DejaVuSans-116"/>
      <use x="580.664062" xlink:href="#DejaVuSans-105"/>
      <use x="608.447266" xlink:href="#DejaVuSans-116"/>
      <use x="647.65625" xlink:href="#DejaVuSans-117"/>
      <use x="711.035156" xlink:href="#DejaVuSans-100"/>
      <use x="774.511719" xlink:href="#DejaVuSans-101"/>
      <use x="836.035156" xlink:href="#DejaVuSans-44"/>
      <use x="867.822266" xlink:href="#DejaVuSans-32"/>
      <use x="899.609375" xlink:href="#DejaVuSans-73"/>
      <use x="929.101562" xlink:href="#DejaVuSans-110"/>
      <use x="992.480469" xlink:href="#DejaVuSans-116"/>
      <use x="1031.689453" xlink:href="#DejaVuSans-101"/>
      <use x="1093.212891" xlink:href="#DejaVuSans-114"/>
      <use x="1134.326172" xlink:href="#DejaVuSans-112"/>
      <use x="1197.802734" xlink:href="#DejaVuSans-111"/>
      <use x="1258.984375" xlink:href="#DejaVuSans-108"/>
      <use x="1286.767578" xlink:href="#DejaVuSans-97"/>
      <use x="1348.046875" xlink:href="#DejaVuSans-116"/>
      <use x="1387.255859" xlink:href="#DejaVuSans-105"/>
      <use x="1415.039062" xlink:href="#DejaVuSans-111"/>
      <use x="1476.220703" xlink:href="#DejaVuSans-110"/>
      <use x="1539.599609" xlink:href="#DejaVuSans-44"/>
      <use x="1571.386719" xlink:href="#DejaVuSans-32"/>
      <use x="1603.173828" xlink:href="#DejaVuSans-70"/>
      <use x="1653.443359" xlink:href="#DejaVuSans-105"/>
      <use x="1681.226562" xlink:href="#DejaVuSans-108"/>
      <use x="1709.009766" xlink:href="#DejaVuSans-108"/>
      <use x="1736.792969" xlink:href="#DejaVuSans-101"/>
      <use x="1798.316406" xlink:href="#DejaVuSans-100"/>
     </g>
    </g>
   </g>
  </g>
 </g>
 <defs>
  <clipPath id="pd9c5255b5a">
   <rect height="308.525145" width="671.05577" x="45.94399" y="18.118365"/>
  </clipPath>
 </defs>
</svg>
